<svg xmlns="http://www.w3.org/2000/svg" width="224.68" height="27.88" viewBox="0 0 224.68 27.88">
  <g id="グループ_48" data-name="グループ 48" transform="translate(0 -27.956)">
    <g id="グループ_38" data-name="グループ 38" transform="translate(-35)">
      <path id="パス_29" data-name="パス 29" d="M63.162,27.956,35,55.836H52.689L80.85,27.956Z" fill="#142864"/>
      <path id="パス_30" data-name="パス 30" d="M160.654,27.956H89.165L61,55.836h71.488Z" fill="#142864"/>
    </g>
    <g id="グループ_39" data-name="グループ 39" transform="translate(-35)">
      <path id="パス_31" data-name="パス 31" d="M176.042,55.479h-8.3V27.956h8.3Z" fill="#142864"/>
      <path id="パス_32" data-name="パス 32" d="M227.571,27.956l-11.914,27.88h-4.8L203.7,39.613l-7.328,16.223H191.53l-11.675-27.88h8.6l5.719,15.252,6.553-15.252h5.937L213.1,43.208l5.977-15.252Z" fill="#142864"/>
      <path id="パス_33" data-name="パス 33" d="M259.68,42.215a13.1,13.1,0,0,1-1.539,6.79,14.535,14.535,0,0,1-3.624,4.15q-2.959,2.323-8.28,2.324H231.384V27.956h11.437a31.242,31.242,0,0,1,4.418.269,19.566,19.566,0,0,1,3.306.754,12.338,12.338,0,0,1,4.349,2.393,12.65,12.65,0,0,1,2.472,2.721,13.308,13.308,0,0,1,1.688,3.633A15.423,15.423,0,0,1,259.68,42.215Zm-8.44-.359a9.2,9.2,0,0,0-1.28-5.232,6.278,6.278,0,0,0-3.078-2.512,10.929,10.929,0,0,0-3.664-.634h-3.534v16.3h3.534a10.116,10.116,0,0,0,5.64-1.549Q251.24,46.682,251.24,41.856Z" fill="#142864"/>
    </g>
  </g>
</svg>
